Coordinates
version=1
nRows=26
nColumns=24
inDegrees=yes

Units are S.I. units (second, meters, Newtons, ...)
Angles are in degrees.

endheader
time	pelvis_tilt	pelvis_list	pelvis_rotation	pelvis_tx	pelvis_ty	pelvis_tz	hip_flexion_r	hip_adduction_r	hip_rotation_r	knee_angle_r	ankle_angle_r	subtalar_angle_r	mtp_angle_r	hip_flexion_l	hip_adduction_l	hip_rotation_l	knee_angle_l	ankle_angle_l	subtalar_angle_l	mtp_angle_l	lumbar_extension	lumbar_bending	lumbar_rotation
      4.88500000	     13.46813683	      9.00010376	     -3.14351903	      0.65941098	      0.75704163	     -0.31224152	     14.17694716	    -13.23302295	      0.46849428	    -52.98967497	     20.83106765	    -10.74757901	      0.00000000	    -10.36734554	     15.89498559	      4.28109598	    -12.29537984	     23.22612099	     -0.07257627	      0.00000000	    -33.87433263	     -4.72707810	     -0.26444520
      4.89000000	     13.43094063	      9.11538413	     -2.66459969	      0.66669965	      0.75693998	     -0.31280041	     14.73194487	    -13.35154974	      0.25733471	    -51.27610898	     21.00467514	    -10.13769025	      0.00000000	    -11.31474986	     15.90188218	      4.65523468	    -11.74667604	     23.52335948	      0.37563357	      0.00000000	    -33.94358430	     -4.56345657	     -1.30526963
      4.89500000	     13.39726450	      9.24320247	     -2.15087241	      0.67398345	      0.75675317	     -0.31335083	     15.22060230	    -13.50055283	     -0.00701413	    -49.47693097	     21.11132004	     -9.70163759	      0.00000000	    -12.25216331	     15.89488965	      5.00560434	    -11.23773949	     23.84411251	      0.87927922	      0.00000000	    -34.02285528	     -4.40664652	     -2.34996545
      4.90000000	     13.37794256	      9.37464254	     -1.61256681	      0.68125717	      0.75649696	     -0.31388537	     15.62999127	    -13.66378243	     -0.30207809	    -47.59355764	     21.15713302	     -9.40283949	      0.00000000	    -13.18781835	     15.86818283	      5.34799393	    -10.77515085	     24.19770722	      1.42922636	      0.00000000	    -34.12542856	     -4.25015499	     -3.38173823
      4.90500000	     13.38495363	      9.49707808	     -1.05662091	      0.68853061	      0.75619081	     -0.31438397	     15.94058617	    -13.82520159	     -0.62841535	    -45.62245863	     21.14642867	     -9.20401901	      0.00000000	    -14.13582451	     15.80735790	      5.68130701	    -10.35564226	     24.59360008	      2.02591709	      0.00000000	    -34.26387519	     -4.08685995	     -4.38020368
      4.91000000	     13.37242154	      9.65819815	     -0.46526921	      0.69579543	      0.75578402	     -0.31487587	     16.21769164	    -14.04498581	     -1.01457594	    -43.59530699	     21.09191268	     -9.16099753	      0.00000000	    -15.03891475	     15.76048634	      5.98435102	     -9.99226168	     24.98355370	      2.63856359	      0.00000000	    -34.38718477	     -3.95698309	     -5.39176763
      4.91500000	     13.36037313	      9.83912232	      0.15695200	      0.70306698	      0.75530444	     -0.31536799	     16.42706587	    -14.30022997	     -1.44761578	    -41.50683403	     21.00647955	     -9.18907829	      0.00000000	    -15.92092178	     15.71054889	      6.28368712	     -9.68804677	     25.39153604	      3.26060067	      0.00000000	    -34.51557262	     -3.83559182	     -6.39281983
      4.92000000	     13.40850766	      9.97190323	      0.77969930	      0.71035566	      0.75483668	     -0.31580732	     16.48688000	    -14.50287681	     -1.91444581	    -39.33015203	     20.90690808	     -9.16585283	      0.00000000	    -16.85671639	     15.58515614	      6.59151241	     -9.41031772	     25.84267048	      3.93825694	      0.00000000	    -34.71190343	     -3.67240609	     -7.29725482
      4.92500000	     13.40278867	     10.18128824	      1.43774278	      0.71760680	      0.75423398	     -0.31623520	     16.56781208	    -14.79620619	     -2.41052062	    -37.14895280	     20.78168649	     -9.20233383	      0.00000000	    -17.68907423	     15.51869717	      6.91420073	     -9.23718354	     26.28404953	      4.56582393	      0.00000000	    -34.86222057	     -3.57999600	     -8.25337086
      4.93000000	     13.44996987	     10.36038501	      2.11599791	      0.72490568	      0.75364653	     -0.31661695	     16.50394476	    -15.06057196	     -2.97360714	    -34.91131418	     20.68652981	     -9.12044960	      0.00000000	    -18.57726158	     15.38586528	      7.22647774	     -9.07489441	     26.74144027	      5.21962721	      0.00000000	    -35.06976112	     -3.45773864	     -9.13083451
      4.93500000	     13.43245820	     10.60796527	      2.83106061	      0.73214013	      0.75293031	     -0.31696750	     16.47804613	    -15.39394911	     -3.52952280	    -32.69873771	     20.55361952	     -9.03477286	      0.00000000	    -19.33632082	     15.30475361	      7.58414269	     -9.04879755	     27.22606979	      5.81741478	      0.00000000	    -35.22632425	     -3.40013067	    -10.06135008
      4.94000000	     13.49505306	     10.80333496	      3.53250108	      0.73949065	      0.75226964	     -0.31727979	     16.27768706	    -15.67325345	     -4.17441350	    -30.44208864	     20.51371950	     -8.68904954	      0.00000000	    -20.19626559	     15.14069551	      7.93231234	     -8.99754886	     27.69238837	      6.45471339	      0.00000000	    -35.45010925	     -3.29408611	    -10.85175607
      4.94500000	     13.48677717	     11.04674352	      4.27134580	      0.74675753	      0.75149186	     -0.31754240	     16.12837927	    -15.98876055	     -4.78235996	    -28.24110128	     20.43862238	     -8.31920751	      0.00000000	    -20.90719942	     15.00803644	      8.30729828	     -9.10250974	     28.20360450	      7.03236361	      0.00000000	    -35.62011556	     -3.23700063	    -11.68531265
      4.95000000	     13.52048638	     11.28074066	      5.00194672	      0.75414271	      0.75073796	     -0.31775311	     15.87269151	    -16.28813719	     -5.45168108	    -26.06656631	     20.44828197	     -7.67505619	      0.00000000	    -21.68015978	     14.83538278	      8.67379618	     -9.18253874	     28.67983621	      7.63812364	      0.00000000	    -35.81566915	     -3.17760900	    -12.44562867
      4.95500000	     13.51759270	     11.52251267	      5.74612862	      0.76150489	      0.74992565	     -0.31791399	     15.62708324	    -16.57828192	     -6.09132403	    -23.96033794	     20.46984309	     -6.93125028	      0.00000000	    -22.35334136	     14.65636307	      9.05113224	     -9.38750561	     29.17653033	      8.21763100	      0.00000000	    -35.98078807	     -3.13197267	    -13.17421104
      4.96000000	     13.47157927	     11.76615994	      6.50598821	      0.76889056	      0.74907329	     -0.31798362	     15.39117721	    -16.84422986	     -6.68996331	    -21.92672700	     20.51943479	     -6.13137576	      0.00000000	    -22.93432687	     14.45954209	      9.44544011	     -9.69232627	     29.65418376	      8.80348926	      0.00000000	    -36.10184975	     -3.11342163	    -13.84292276
      4.96500000	     13.47993079	     11.99555059	      7.21110899	      0.77637804	      0.74824652	     -0.31801178	     15.09478883	    -17.08676016	     -7.30636545	    -20.02641807	     20.61850540	     -4.93373011	      0.00000000	    -23.58339753	     14.23865640	      9.77024084	     -9.96126092	     30.15368034	      9.37850378	      0.00000000	    -36.25740019	     -3.09195601	    -14.46226026
      4.97000000	     13.38773974	     12.21273446	      7.96435749	      0.78385131	      0.74736506	     -0.31796168	     14.86979607	    -17.28715898	     -7.82304413	    -18.21406653	     20.68661493	     -3.92578153	      0.00000000	    -24.04178287	     13.99148212	     10.14446606	    -10.40313421	     30.60664673	      9.96808790	      0.00000000	    -36.31501127	     -3.07992303	    -15.02041213
      4.97500000	     13.32129855	     12.40152264	      8.67476830	      0.79141732	      0.74650870	     -0.31786034	     14.61862515	    -17.44378964	     -8.33898176	    -16.55352194	     20.79351574	     -2.64186183	      0.00000000	    -24.50468771	     13.71251022	     10.45499293	    -10.87308094	     31.07734061	     10.56462062	      0.00000000	    -36.37374419	     -3.05955660	    -15.51267040
      4.98000000	     13.24664176	     12.55978729	      9.33961873	      0.79904942	      0.74565942	     -0.31768726	     14.38906777	    -17.54604031	     -8.79670401	    -15.05213813	     20.91987085	     -1.25001537	      0.00000000	    -24.91686365	     13.41155630	     10.72857133	    -11.40328642	     31.52505941	     11.14293343	      0.00000000	    -36.40963996	     -3.04174797	    -15.90932807
      4.98500000	     13.16220137	     12.68324045	      9.96856250	      0.80677419	      0.74482887	     -0.31744506	     14.17975959	    -17.59161064	     -9.20844335	    -13.71987636	     21.06727160	      0.22393876	      0.00000000	    -25.27596773	     13.08092333	     10.96601768	    -11.99870303	     31.94210510	     11.71639225	      0.00000000	    -36.40854852	     -3.02399420	    -16.22310787
      4.99000000	     13.07268731	     12.76972644	     10.54121868	      0.81458907	      0.74402147	     -0.31712302	     13.99946069	    -17.57444039	     -9.56827016	    -12.56580531	     21.24170037	      1.75843782	      0.00000000	    -25.58719884	     12.72957099	     11.16725460	    -12.64892720	     32.30979428	     12.27531219	      0.00000000	    -36.37869183	     -3.00853246	    -16.45657684
      4.99500000	     13.01088055	     12.85480073	     11.04940679	      0.82247817	      0.74326894	     -0.31675364	     13.82325209	    -17.53838589	     -9.88210717	    -11.62138707	     21.45176794	      3.40502816	      0.00000000	    -25.89269098	     12.39244243	     11.33558953	    -13.35506120	     32.62907818	     12.80155952	      0.00000000	    -36.36089597	     -3.01935581	    -16.59754179
      5.00000000	     12.86973490	     12.82068645	     11.57966658	      0.83051174	      0.74252496	     -0.31635889	     13.71180036	    -17.36374522	    -10.16252767	    -10.80185108	     21.58216265	      4.84005324	      0.00000000	    -26.04469868	     11.94496294	     11.47737099	    -14.15034951	     32.89590062	     13.32163987	      0.00000000	    -36.20165790	     -2.93815688	    -16.67775524
      5.00500000	     12.79901874	     12.80564405	     12.00857066	      0.83858867	      0.74186171	     -0.31588868	     13.59256331	    -17.19104847	    -10.44341046	    -10.23589814	     21.76956306	      6.48451037	      0.00000000	    -26.22319830	     11.54160625	     11.58031692	    -15.02740443	     33.10833197	     13.84760287	      0.00000000	    -36.11414619	     -2.90778202	    -16.67421819
      5.01000000	     12.70685646	     12.72621866	     12.40866661	      0.84681156	      0.74124283	     -0.31539190	     13.49713907	    -16.93498633	    -10.71505074	     -9.81288180	     21.92332408	      8.01890637	      0.00000000	    -26.32928916	     11.09542607	     11.66708910	    -15.97153655	     33.23805974	     14.32038456	      0.00000000	    -35.95657060	     -2.84557181	    -16.58440205
